<mxfile host="app.diagrams.net" modified="2024-02-01T22:41:31.154Z" agent="Mozilla/5.0 (Windows NT 10.0; Win64; x64; rv:121.0) Gecko/20100101 Firefox/121.0" etag="Ucr_gtcHG5PHzQFmBcjH" version="23.0.2" type="device">
  <diagram name="Page-1" id="m4HbVYhpBsFxY-E0fdw8">
    <mxGraphModel dx="1354" dy="576" grid="1" gridSize="10" guides="1" tooltips="1" connect="1" arrows="1" fold="1" page="1" pageScale="1" pageWidth="850" pageHeight="1100" math="0" shadow="0">
      <root>
        <mxCell id="0" />
        <mxCell id="1" parent="0" />
        <mxCell id="CMK4vEeK8Xor_b6nnSUB-8" value="Flash Module" style="whiteSpace=wrap;html=1;" parent="1" vertex="1">
          <mxGeometry x="600" y="419.47" width="120" height="60" as="geometry" />
        </mxCell>
        <mxCell id="CMK4vEeK8Xor_b6nnSUB-11" value="Buzzer Circuit" style="whiteSpace=wrap;html=1;" parent="1" vertex="1">
          <mxGeometry x="600" y="319.47" width="120" height="60" as="geometry" />
        </mxCell>
        <mxCell id="CUMl1UJSkQKC7S2yGOib-27" style="edgeStyle=orthogonalEdgeStyle;rounded=0;orthogonalLoop=1;jettySize=auto;html=1;entryX=0.25;entryY=0;entryDx=0;entryDy=0;" edge="1" parent="1" source="CMK4vEeK8Xor_b6nnSUB-16" target="CUMl1UJSkQKC7S2yGOib-3">
          <mxGeometry relative="1" as="geometry" />
        </mxCell>
        <mxCell id="CMK4vEeK8Xor_b6nnSUB-16" value="3-Axis Magnetometer" style="whiteSpace=wrap;html=1;" parent="1" vertex="1">
          <mxGeometry x="280" y="419.47" width="120" height="60" as="geometry" />
        </mxCell>
        <mxCell id="CUMl1UJSkQKC7S2yGOib-28" style="edgeStyle=orthogonalEdgeStyle;rounded=0;orthogonalLoop=1;jettySize=auto;html=1;entryX=0.25;entryY=0;entryDx=0;entryDy=0;" edge="1" parent="1" source="CMK4vEeK8Xor_b6nnSUB-21" target="CUMl1UJSkQKC7S2yGOib-3">
          <mxGeometry relative="1" as="geometry" />
        </mxCell>
        <mxCell id="CMK4vEeK8Xor_b6nnSUB-21" value="Load Cell ADCs" style="whiteSpace=wrap;html=1;" parent="1" vertex="1">
          <mxGeometry x="280" y="319.47" width="120" height="60" as="geometry" />
        </mxCell>
        <mxCell id="CUMl1UJSkQKC7S2yGOib-1" value="" style="edgeStyle=orthogonalEdgeStyle;rounded=0;orthogonalLoop=1;jettySize=auto;html=1;startArrow=classic;startFill=1;" edge="1" parent="1" source="CUMl1UJSkQKC7S2yGOib-2" target="CUMl1UJSkQKC7S2yGOib-5">
          <mxGeometry relative="1" as="geometry" />
        </mxCell>
        <mxCell id="CUMl1UJSkQKC7S2yGOib-2" value="&lt;div&gt;Stack Edge Connector&lt;/div&gt;" style="whiteSpace=wrap;html=1;fontStyle=1" vertex="1" parent="1">
          <mxGeometry x="120" y="620" width="120" height="60" as="geometry" />
        </mxCell>
        <mxCell id="CUMl1UJSkQKC7S2yGOib-29" style="edgeStyle=orthogonalEdgeStyle;rounded=0;orthogonalLoop=1;jettySize=auto;html=1;exitX=0.75;exitY=0;exitDx=0;exitDy=0;entryX=0;entryY=0.5;entryDx=0;entryDy=0;" edge="1" parent="1" source="CUMl1UJSkQKC7S2yGOib-3" target="CMK4vEeK8Xor_b6nnSUB-8">
          <mxGeometry relative="1" as="geometry" />
        </mxCell>
        <mxCell id="CUMl1UJSkQKC7S2yGOib-30" style="edgeStyle=orthogonalEdgeStyle;rounded=0;orthogonalLoop=1;jettySize=auto;html=1;exitX=0.75;exitY=0;exitDx=0;exitDy=0;entryX=0;entryY=0.5;entryDx=0;entryDy=0;" edge="1" parent="1" source="CUMl1UJSkQKC7S2yGOib-3" target="CMK4vEeK8Xor_b6nnSUB-11">
          <mxGeometry relative="1" as="geometry" />
        </mxCell>
        <mxCell id="CUMl1UJSkQKC7S2yGOib-3" value="Processor&lt;br&gt;(STM32F103CBT6)" style="whiteSpace=wrap;html=1;" vertex="1" parent="1">
          <mxGeometry x="440" y="620" width="120" height="60" as="geometry" />
        </mxCell>
        <mxCell id="CUMl1UJSkQKC7S2yGOib-4" value="" style="edgeStyle=orthogonalEdgeStyle;rounded=0;orthogonalLoop=1;jettySize=auto;html=1;startArrow=classic;startFill=1;" edge="1" parent="1" source="CUMl1UJSkQKC7S2yGOib-5" target="CUMl1UJSkQKC7S2yGOib-3">
          <mxGeometry relative="1" as="geometry" />
        </mxCell>
        <mxCell id="CUMl1UJSkQKC7S2yGOib-5" value="CAN Interface (Isolated)" style="whiteSpace=wrap;html=1;" vertex="1" parent="1">
          <mxGeometry x="280" y="620" width="120" height="60" as="geometry" />
        </mxCell>
        <mxCell id="CUMl1UJSkQKC7S2yGOib-6" style="edgeStyle=orthogonalEdgeStyle;rounded=0;orthogonalLoop=1;jettySize=auto;html=1;entryX=0.89;entryY=-0.012;entryDx=0;entryDy=0;entryPerimeter=0;" edge="1" parent="1" source="CUMl1UJSkQKC7S2yGOib-7" target="CUMl1UJSkQKC7S2yGOib-3">
          <mxGeometry relative="1" as="geometry" />
        </mxCell>
        <mxCell id="CUMl1UJSkQKC7S2yGOib-7" value="Crystal Oscillator" style="whiteSpace=wrap;html=1;" vertex="1" parent="1">
          <mxGeometry x="600" y="520" width="120" height="60" as="geometry" />
        </mxCell>
        <mxCell id="CUMl1UJSkQKC7S2yGOib-8" style="edgeStyle=orthogonalEdgeStyle;rounded=0;orthogonalLoop=1;jettySize=auto;html=1;entryX=0;entryY=0.5;entryDx=0;entryDy=0;exitX=0.5;exitY=1;exitDx=0;exitDy=0;" edge="1" parent="1" source="CUMl1UJSkQKC7S2yGOib-2" target="CUMl1UJSkQKC7S2yGOib-21">
          <mxGeometry relative="1" as="geometry">
            <mxPoint x="180" y="680" as="sourcePoint" />
            <Array as="points">
              <mxPoint x="180" y="850" />
            </Array>
          </mxGeometry>
        </mxCell>
        <mxCell id="CUMl1UJSkQKC7S2yGOib-9" style="edgeStyle=orthogonalEdgeStyle;rounded=0;orthogonalLoop=1;jettySize=auto;html=1;exitX=1;exitY=0.25;exitDx=0;exitDy=0;entryX=0;entryY=0.25;entryDx=0;entryDy=0;" edge="1" parent="1" source="CUMl1UJSkQKC7S2yGOib-3" target="CUMl1UJSkQKC7S2yGOib-22">
          <mxGeometry relative="1" as="geometry">
            <mxPoint x="560" y="635" as="sourcePoint" />
          </mxGeometry>
        </mxCell>
        <mxCell id="CUMl1UJSkQKC7S2yGOib-10" style="edgeStyle=orthogonalEdgeStyle;rounded=0;orthogonalLoop=1;jettySize=auto;html=1;exitX=0.5;exitY=0;exitDx=0;exitDy=0;entryX=0.5;entryY=1;entryDx=0;entryDy=0;" edge="1" parent="1" source="CUMl1UJSkQKC7S2yGOib-11" target="CUMl1UJSkQKC7S2yGOib-3">
          <mxGeometry relative="1" as="geometry">
            <mxPoint x="500" y="680" as="targetPoint" />
            <Array as="points">
              <mxPoint x="500" y="800" />
              <mxPoint x="570" y="800" />
              <mxPoint x="570" y="710" />
              <mxPoint x="500" y="710" />
            </Array>
          </mxGeometry>
        </mxCell>
        <mxCell id="CUMl1UJSkQKC7S2yGOib-11" value="&lt;div&gt;Current Monitoring IC&lt;br&gt;&lt;/div&gt;" style="whiteSpace=wrap;html=1;" vertex="1" parent="1">
          <mxGeometry x="440" y="820" width="120" height="60" as="geometry" />
        </mxCell>
        <mxCell id="CUMl1UJSkQKC7S2yGOib-12" value="" style="edgeStyle=orthogonalEdgeStyle;rounded=0;orthogonalLoop=1;jettySize=auto;html=1;" edge="1" parent="1" target="CUMl1UJSkQKC7S2yGOib-11">
          <mxGeometry relative="1" as="geometry">
            <mxPoint x="400" y="850" as="sourcePoint" />
          </mxGeometry>
        </mxCell>
        <mxCell id="CUMl1UJSkQKC7S2yGOib-13" value="" style="edgeStyle=orthogonalEdgeStyle;rounded=0;orthogonalLoop=1;jettySize=auto;html=1;" edge="1" parent="1" source="CUMl1UJSkQKC7S2yGOib-15" target="CUMl1UJSkQKC7S2yGOib-20">
          <mxGeometry relative="1" as="geometry" />
        </mxCell>
        <mxCell id="CUMl1UJSkQKC7S2yGOib-14" style="edgeStyle=orthogonalEdgeStyle;rounded=0;orthogonalLoop=1;jettySize=auto;html=1;exitX=0.25;exitY=0;exitDx=0;exitDy=0;entryX=0.25;entryY=1;entryDx=0;entryDy=0;startArrow=classic;startFill=1;" edge="1" parent="1" source="CUMl1UJSkQKC7S2yGOib-15" target="CUMl1UJSkQKC7S2yGOib-3">
          <mxGeometry relative="1" as="geometry">
            <mxPoint x="470" y="680" as="targetPoint" />
          </mxGeometry>
        </mxCell>
        <mxCell id="CUMl1UJSkQKC7S2yGOib-15" value="USB Connector" style="whiteSpace=wrap;html=1;fontStyle=1" vertex="1" parent="1">
          <mxGeometry x="440" y="720" width="120" height="60" as="geometry" />
        </mxCell>
        <mxCell id="CUMl1UJSkQKC7S2yGOib-16" style="edgeStyle=orthogonalEdgeStyle;rounded=0;orthogonalLoop=1;jettySize=auto;html=1;entryX=0.75;entryY=1;entryDx=0;entryDy=0;" edge="1" parent="1" source="CUMl1UJSkQKC7S2yGOib-18" target="CUMl1UJSkQKC7S2yGOib-3">
          <mxGeometry relative="1" as="geometry">
            <mxPoint x="530" y="680" as="targetPoint" />
            <Array as="points">
              <mxPoint x="580" y="850" />
              <mxPoint x="580" y="700" />
              <mxPoint x="530" y="700" />
            </Array>
          </mxGeometry>
        </mxCell>
        <mxCell id="CUMl1UJSkQKC7S2yGOib-17" style="edgeStyle=orthogonalEdgeStyle;rounded=0;orthogonalLoop=1;jettySize=auto;html=1;entryX=0.5;entryY=1;entryDx=0;entryDy=0;" edge="1" parent="1" source="CUMl1UJSkQKC7S2yGOib-18" target="CUMl1UJSkQKC7S2yGOib-21">
          <mxGeometry relative="1" as="geometry">
            <Array as="points">
              <mxPoint x="660" y="900" />
              <mxPoint x="340" y="900" />
            </Array>
          </mxGeometry>
        </mxCell>
        <mxCell id="CUMl1UJSkQKC7S2yGOib-18" value="&lt;div&gt;SWD Header&lt;/div&gt;&lt;div&gt;(Programming)&lt;/div&gt;" style="whiteSpace=wrap;html=1;fontStyle=1" vertex="1" parent="1">
          <mxGeometry x="600" y="820" width="120" height="60" as="geometry" />
        </mxCell>
        <mxCell id="CUMl1UJSkQKC7S2yGOib-19" value="" style="edgeStyle=orthogonalEdgeStyle;rounded=0;orthogonalLoop=1;jettySize=auto;html=1;" edge="1" parent="1" source="CUMl1UJSkQKC7S2yGOib-20" target="CUMl1UJSkQKC7S2yGOib-21">
          <mxGeometry relative="1" as="geometry" />
        </mxCell>
        <mxCell id="CUMl1UJSkQKC7S2yGOib-20" value="Linear Regulator" style="whiteSpace=wrap;html=1;" vertex="1" parent="1">
          <mxGeometry x="280" y="720" width="120" height="60" as="geometry" />
        </mxCell>
        <mxCell id="CUMl1UJSkQKC7S2yGOib-21" value="&lt;div&gt;3x Ideal Diodes&lt;/div&gt;&lt;div&gt;(Power Mux)&lt;/div&gt;" style="whiteSpace=wrap;html=1;" vertex="1" parent="1">
          <mxGeometry x="280" y="820" width="120" height="60" as="geometry" />
        </mxCell>
        <mxCell id="CUMl1UJSkQKC7S2yGOib-22" value="RGB Indicator LED(s)" style="whiteSpace=wrap;html=1;" vertex="1" parent="1">
          <mxGeometry x="600" y="620" width="120" height="60" as="geometry" />
        </mxCell>
        <mxCell id="CUMl1UJSkQKC7S2yGOib-23" style="edgeStyle=orthogonalEdgeStyle;rounded=0;orthogonalLoop=1;jettySize=auto;html=1;exitX=0.5;exitY=0;exitDx=0;exitDy=0;entryX=1;entryY=0.75;entryDx=0;entryDy=0;" edge="1" parent="1" source="CUMl1UJSkQKC7S2yGOib-24" target="CUMl1UJSkQKC7S2yGOib-3">
          <mxGeometry relative="1" as="geometry">
            <mxPoint x="560" y="665" as="targetPoint" />
            <Array as="points">
              <mxPoint x="660" y="690" />
              <mxPoint x="580" y="690" />
              <mxPoint x="580" y="665" />
            </Array>
          </mxGeometry>
        </mxCell>
        <mxCell id="CUMl1UJSkQKC7S2yGOib-24" value="&lt;div&gt;BootMode &amp;amp; Reset&lt;/div&gt;&lt;div&gt;Buttons&lt;br&gt;&lt;/div&gt;" style="whiteSpace=wrap;html=1;" vertex="1" parent="1">
          <mxGeometry x="600" y="720" width="120" height="60" as="geometry" />
        </mxCell>
        <mxCell id="CUMl1UJSkQKC7S2yGOib-26" style="edgeStyle=orthogonalEdgeStyle;rounded=0;orthogonalLoop=1;jettySize=auto;html=1;entryX=0.25;entryY=0;entryDx=0;entryDy=0;" edge="1" parent="1" source="CUMl1UJSkQKC7S2yGOib-25" target="CUMl1UJSkQKC7S2yGOib-3">
          <mxGeometry relative="1" as="geometry" />
        </mxCell>
        <mxCell id="CUMl1UJSkQKC7S2yGOib-25" value="Photoresistor&lt;br&gt;Subcircuit*" style="whiteSpace=wrap;html=1;" vertex="1" parent="1">
          <mxGeometry x="280" y="520" width="120" height="60" as="geometry" />
        </mxCell>
      </root>
    </mxGraphModel>
  </diagram>
</mxfile>
